<svg xmlns="http://www.w3.org/2000/svg" viewBox="0 0 544.84 594.48"><defs><style>.cls-1{fill:#f40005;}.cls-2{fill:#f63337;}.cls-3{fill:#f86669;}</style></defs><g id="Layer_2" data-name="Layer 2"><g id="Layer_1-2" data-name="Layer 1"><path class="cls-1" d="M530.63,297.47c0,33,28.7,86.91,4.52,132.88v0c-1.49,0-3,0-4.51,0a242.61,242.61,0,0,1-81.27-13.65A214.51,214.51,0,0,0,484.9,298.14v-1.36a214.51,214.51,0,0,0-35.54-118.57,242.61,242.61,0,0,1,81.27-13.65h2.81C556.77,216.87,530.63,263.81,530.63,297.47Z"/><path class="cls-2" d="M535.14,430.33v0c-5.12,9.75-12.64,19.15-23.33,27.93-53.58,44-117,31.07-131.61,27.28-1.69-.44-2.72-.77-3-.85a216.58,216.58,0,0,0,72.16-68,242.61,242.61,0,0,0,81.27,13.65C532.13,430.36,533.65,430.36,535.14,430.33Z"/><path class="cls-2" d="M533.44,164.57h-2.81a242.61,242.61,0,0,0-81.27,13.65,216.56,216.56,0,0,0-71.89-67.82l.8-1.37s-.18-.84-.6-2.35c7.41-3.09,85.74-33.68,136.58,27.54A131,131,0,0,1,533.44,164.57Z"/><path class="cls-2" d="M484.9,296.78v1.36a214.51,214.51,0,0,1-35.54,118.57C388.57,395,346.75,349.78,346.75,297.47s41.82-97.57,102.61-119.26A214.51,214.51,0,0,1,484.9,296.78Z"/><path class="cls-3" d="M377.2,484.71a214.11,214.11,0,0,1-95.58,28.46c11.3-63.07-7-121.43-52-147.49s-105-12.77-154.17,28.7a214.44,214.44,0,0,1-22.64-96.23h0v-1.36a214.44,214.44,0,0,1,22.85-96.65C125.41,242.71,186.4,256.51,232,229.79,277,203.47,295,144.94,283.26,81.87a213.59,213.59,0,0,1,94.21,28.52,216.56,216.56,0,0,1,71.89,67.82c-60.79,21.69-102.61,66.95-102.61,119.26S388.57,395,449.36,416.71A216.48,216.48,0,0,1,377.2,484.71Z"/><path class="cls-2" d="M380.21,485.56l-.86,1.86s-9.92,91-92.33,105a130.79,130.79,0,0,1-35.9,1.4h0c.47-.8.95-1.6,1.4-2.4a241.82,241.82,0,0,0,29.1-78.25,214.24,214.24,0,0,0,95.58-28.46C377.49,484.79,378.52,485.12,380.21,485.56Z"/><path class="cls-2" d="M377.67,106.67c.42,1.51.6,2.35.6,2.35l-.8,1.37a213.59,213.59,0,0,0-94.21-28.52A242.11,242.11,0,0,0,253.85,4c-.77-1.31-1.54-2.58-2.32-3.87,11-.52,22.92,1.21,35.89,6C353.7,30.58,374.13,93.73,377.67,106.67Z"/><path class="cls-2" d="M283.26,81.87C295,144.94,277,203.47,232,229.79c-45.63,26.72-106.62,12.92-156.36-29.66a215.36,215.36,0,0,1,192.5-118.7h1.37C274.14,81.43,278.73,81.57,283.26,81.87Z"/><path class="cls-2" d="M229.63,365.69c45,26.05,63.29,84.41,52,147.48q-6,.35-12.08.34h-1.37A215.36,215.36,0,0,1,75.46,394.39C124.61,352.91,184.5,339.55,229.63,365.69Z"/><path class="cls-1" d="M283.26,81.87c-4.53-.3-9.12-.44-13.72-.44h-1.37a215.35,215.35,0,0,0-192.5,118.7,243,243,0,0,1-51.23-61.89c-.47-.8-.93-1.62-1.4-2.43C56.39,89.26,110.1,88.12,139.15,71.1c28.5-16.69,60.51-68.66,112.38-71,.78,1.29,1.55,2.56,2.32,3.87A242.11,242.11,0,0,1,283.26,81.87Z"/><path class="cls-1" d="M269.54,513.51q6.07,0,12.08-.34a241.82,241.82,0,0,1-29.1,78.25c-.45.8-.93,1.6-1.4,2.4h0c-57-6-84.48-52.14-113.61-69-28.58-16.56-89.61-18.71-117.25-62.67.74-1.32,1.47-2.61,2.24-3.91a241.82,241.82,0,0,1,53-63.86A215.36,215.36,0,0,0,268.17,513.51Z"/><path class="cls-2" d="M75.67,200.13a214.44,214.44,0,0,0-22.86,96.65v1.36h-.4s-.38.35-1.08,1c-8.37-6.44-71.46-58-44.8-131.46A130.69,130.69,0,0,1,23,135.81c.47.81.93,1.63,1.4,2.43A243,243,0,0,0,75.67,200.13Z"/><path class="cls-2" d="M51.33,299.18c.7-.68,1.08-1,1.08-1h.4a214.45,214.45,0,0,0,22.65,96.23,241.87,241.87,0,0,0-53,63.87c-.77,1.3-1.5,2.59-2.24,3.91C14.38,452.83,10,441.6,7.77,428-4,356.47,43.5,306.82,51.33,299.18Z"/></g></g></svg>